<?xml version="1.0" encoding="UTF-8" ?>
<!DOCTYPE svg PUBLIC "-//W3C//DTD SVG 1.1//EN" "http://www.w3.org/Graphics/SVG/1.1/DTD/svg11.dtd">
<svg width="468pt" height="624pt" viewBox="0 0 468 624" version="1.1" xmlns="http://www.w3.org/2000/svg">
<g id="#a0a0a0ff">
<path fill="#a0a0a0" opacity="1.00" d=" M 177.26 0.75 C 187.55 0.47 198.54 3.49 205.68 11.27 C 211.70 17.34 213.88 26.84 211.06 34.92 C 208.56 42.36 203.21 48.32 198.44 54.40 C 193.89 59.97 190.13 66.20 184.89 71.19 C 186.78 65.67 187.64 59.46 185.01 54.02 C 179.75 42.19 166.19 36.48 153.88 36.19 C 149.13 43.08 144.01 49.71 139.76 56.92 C 122.74 84.41 113.07 116.60 113.49 149.00 C 113.74 185.89 126.11 221.81 144.55 253.44 C 160.88 281.29 181.67 306.41 205.19 328.48 C 195.67 339.40 185.81 350.01 176.25 360.89 C 153.18 338.41 132.38 313.26 117.24 284.71 C 102.19 256.57 93.05 225.00 92.69 192.98 C 91.74 152.86 104.27 113.44 123.57 78.60 C 130.81 65.51 138.97 52.94 147.81 40.88 C 157.57 27.46 167.03 13.82 177.26 0.75 Z" />
<path fill="#a0a0a0" opacity="1.00" d=" M 107.39 5.35 C 107.82 4.91 108.68 4.02 109.11 3.57 C 97.17 21.64 83.13 38.25 71.46 56.52 C 54.11 83.20 39.69 112.15 32.07 143.16 C 24.71 172.54 24.30 203.65 31.34 233.13 C 39.73 269.10 57.70 302.05 78.83 332.06 C 100.41 362.69 125.32 390.79 150.83 418.16 C 165.96 434.36 181.27 450.43 195.38 467.54 C 209.84 485.10 223.10 503.91 232.34 524.78 C 239.43 541.35 243.38 559.39 243.52 577.43 C 255.06 562.33 261.84 543.84 263.89 525.01 C 266.42 501.95 261.10 478.56 251.29 457.72 C 240.39 434.49 224.37 414.04 206.52 395.76 C 216.14 385.05 225.68 374.25 235.44 363.66 C 253.68 383.76 269.79 406.47 278.37 432.46 C 286.80 456.97 287.44 483.83 281.30 508.94 C 273.26 542.16 255.58 572.11 235.69 599.55 C 229.60 607.69 223.71 616.03 216.71 623.42 C 219.08 601.10 214.74 578.48 206.08 557.88 C 193.26 527.51 172.84 501.15 151.34 476.46 C 133.69 456.22 114.90 437.04 96.50 417.50 C 75.10 394.73 53.84 371.57 36.43 345.52 C 15.65 314.26 2.16 277.68 0.52 240.00 C -1.44 202.13 8.50 164.53 24.24 130.32 C 45.34 84.67 75.56 44.01 107.39 5.35 Z" />
<path fill="#a0a0a0" opacity="1.00" d=" M 262.69 33.69 C 282.35 19.42 305.48 9.07 329.91 7.29 C 353.82 5.43 377.94 12.74 397.57 26.31 C 409.71 34.62 420.40 44.92 429.84 56.17 C 447.64 79.86 460.43 107.61 465.00 136.99 C 469.69 166.19 466.33 196.27 457.64 224.41 C 441.83 275.30 411.54 320.18 378.44 361.37 C 383.09 351.41 387.39 341.02 388.18 329.91 C 390.32 308.52 381.31 287.83 369.39 270.58 C 342.19 231.38 303.08 202.14 276.60 162.36 C 264.95 144.80 256.42 124.29 257.02 102.90 C 257.67 79.54 269.14 57.65 284.81 40.80 C 261.05 46.24 239.52 60.48 224.89 79.92 C 212.26 96.78 206.38 118.19 207.36 139.13 C 208.65 167.53 219.89 194.73 235.90 217.93 C 254.18 243.65 275.87 266.65 296.41 290.53 C 316.18 313.40 335.71 336.84 350.43 363.38 C 361.25 383.15 369.40 405.17 369.01 427.99 C 369.22 444.35 364.61 460.53 357.13 474.99 C 351.92 485.28 344.40 494.13 337.33 503.16 C 347.76 503.56 358.78 507.14 365.33 515.70 C 371.62 523.41 371.83 535.13 366.15 543.23 C 359.14 553.63 351.63 563.79 343.05 572.94 C 345.34 566.83 345.35 559.78 341.87 554.10 C 335.41 543.11 322.00 538.23 309.75 538.47 C 320.09 522.80 332.97 508.48 339.79 490.75 C 346.50 472.99 347.60 453.22 343.18 434.77 C 338.74 415.27 329.16 397.40 318.28 380.78 C 301.37 355.45 281.03 332.70 261.27 309.61 C 239.43 284.09 217.37 258.25 201.58 228.40 C 190.09 206.60 182.69 181.90 184.91 157.07 C 186.22 138.83 192.88 121.46 201.35 105.41 C 216.20 77.41 237.04 52.40 262.69 33.69 M 285.20 65.29 C 280.37 79.55 284.94 94.88 290.90 108.07 C 299.03 125.63 310.52 141.39 322.78 156.27 C 341.40 178.84 363.23 198.49 382.17 220.78 C 395.76 236.90 408.49 255.00 412.40 276.14 C 415.39 291.38 412.34 307.18 406.00 321.18 C 431.05 285.53 444.50 241.63 442.27 198.01 C 440.70 163.43 429.50 129.41 410.44 100.53 C 403.78 89.88 394.82 80.89 385.44 72.63 C 365.84 55.81 341.94 43.04 316.07 39.79 C 303.05 43.68 289.87 51.85 285.20 65.29 Z" />
<path fill="#a0a0a0" opacity="1.00" d=" M 299.29 553.74 C 310.24 553.35 322.03 557.05 329.02 565.88 C 335.28 573.49 335.78 585.15 330.30 593.30 C 325.61 600.73 320.17 607.64 314.73 614.52 C 312.20 617.53 309.90 620.77 306.91 623.36 C 309.67 616.56 308.88 608.48 304.44 602.57 C 297.49 592.96 285.15 588.88 273.67 588.94 C 282.18 577.18 290.75 565.47 299.29 553.74 Z" />
</g>
</svg>
